<svg width="33" height="33" viewBox="0 0 33 33" fill="none" xmlns="http://www.w3.org/2000/svg">
<rect x="0.388672" y="0.513184" width="31.9737" height="31.9737" rx="15.9868" fill="#B6FFBC" fill-opacity="0.2"/>
<path d="M12.8548 11.912C11.9533 11.912 11.2225 12.637 11.2225 13.5313C11.2225 14.4256 11.9533 15.1506 12.8548 15.1506C13.7563 15.1506 14.4871 14.4256 14.4871 13.5313C14.4871 12.637 13.756 11.912 12.8548 11.912ZM22.8901 8.94324H9.83166C8.66014 8.94324 7.68555 9.90977 7.68555 11.1023V21.8978C7.68555 23.0903 8.65983 24.0568 9.83135 24.0568H22.8898C24.0919 24.0568 25.0662 23.0903 25.0662 21.8978V11.1023C25.0665 9.90977 24.1211 8.94324 22.8901 8.94324ZM23.4342 21.6717L18.7821 15.4003C18.6971 15.2451 18.5033 15.1506 18.2958 15.1506C18.088 15.1506 17.8939 15.244 17.7786 15.3995L14.1535 20.2609L12.8922 18.7056C12.7752 18.5613 12.5884 18.4759 12.39 18.4759C12.1913 18.4759 12.0047 18.5613 11.8873 18.7056L9.31918 21.8704C9.31918 21.8694 9.31918 21.8714 9.31918 21.8704L9.31782 11.1023C9.31782 10.8047 9.56192 10.5626 9.86192 10.5626H22.9204C23.2204 10.5626 23.4645 10.8047 23.4645 11.1023V21.6717H23.4342Z" fill="#5FD068"/>
</svg>
