<svg width="22" height="23" viewBox="0 0 22 23" fill="none" xmlns="http://www.w3.org/2000/svg">
<g clip-path="url(#clip0_3825_7806)">
<path d="M19.5901 7.02267L2.49518 7.02267C2.19335 7.02267 1.90388 7.14258 1.69046 7.356C1.47703 7.56943 1.35713 7.85889 1.35713 8.16072L1.35713 19.2022C1.35713 19.504 1.47703 19.7935 1.69046 20.0069C1.90388 20.2203 2.19335 20.3402 2.49518 20.3402L19.5901 20.3402C19.8919 20.3402 20.1814 20.2203 20.3948 20.0069C20.6082 19.7935 20.7281 19.504 20.7281 19.2022L20.7281 8.16072C20.7281 7.85889 20.6082 7.56943 20.3948 7.356C20.1814 7.14258 19.8919 7.02267 19.5901 7.02267ZM19.5175 19.1296L2.56782 19.1296L2.56782 8.23336L19.5175 8.23336L19.5175 19.1296Z" fill="black"/>
<path d="M18.3902 2.78528C18.3902 2.62473 18.3264 2.47076 18.2129 2.35723C18.0994 2.24371 17.9454 2.17993 17.7849 2.17993L4.4673 2.17993C4.30675 2.17993 4.15278 2.24371 4.03926 2.35723C3.92573 2.47076 3.86195 2.62473 3.86195 2.78528L3.86195 3.39062L18.3902 3.39062L18.3902 2.78528Z" fill="black"/>
<path d="M19.5892 5.20666C19.5892 5.04612 19.5254 4.89214 19.4119 4.77862C19.2984 4.6651 19.1444 4.60132 18.9839 4.60132L3.24493 4.60132C3.08438 4.60132 2.93041 4.6651 2.81689 4.77862C2.70336 4.89214 2.63959 5.04612 2.63959 5.20666L2.63959 5.81201L19.5892 5.81201L19.5892 5.20666Z" fill="black"/>
<path d="M7.90654 17.1864C8.07431 17.2952 8.26957 17.354 8.46951 17.3559C8.6136 17.3556 8.75598 17.3246 8.8872 17.2651L14.8014 14.6258C14.9842 14.5464 15.1399 14.4152 15.2492 14.2486C15.3585 14.0819 15.4167 13.8869 15.4167 13.6875C15.4167 13.4882 15.3585 13.2932 15.2492 13.1265C15.1399 12.9598 14.9842 12.8287 14.8014 12.7492L8.8872 10.1099C8.7307 10.0404 8.55932 10.0111 8.38861 10.0245C8.21789 10.038 8.05324 10.0939 7.90956 10.187C7.76589 10.2802 7.64774 10.4078 7.56582 10.5582C7.4839 10.7085 7.4408 10.877 7.44043 11.0482L7.44043 16.3268C7.44074 16.4975 7.4835 16.6655 7.56487 16.8155C7.64624 16.9656 7.76365 17.093 7.90654 17.1864ZM8.28791 11.0482C8.28772 11.0178 8.29543 10.9879 8.31029 10.9614C8.32515 10.9348 8.34664 10.9126 8.37266 10.8969C8.40435 10.8881 8.43782 10.8881 8.46951 10.8969C8.49342 10.8914 8.51825 10.8914 8.54216 10.8969L14.4564 13.5301C14.4897 13.5438 14.5181 13.5674 14.5376 13.5977C14.5571 13.628 14.5668 13.6636 14.5653 13.6996C14.5664 13.7348 14.5565 13.7695 14.5369 13.7987C14.5174 13.828 14.4893 13.8505 14.4564 13.8631L8.54216 16.5024C8.51639 16.5173 8.48716 16.5251 8.45741 16.5251C8.42765 16.5251 8.39843 16.5173 8.37266 16.5024C8.3474 16.4858 8.32651 16.4634 8.31175 16.4371C8.297 16.4107 8.28882 16.3812 8.28791 16.351L8.28791 11.0482Z" fill="black"/>
</g>
<defs>
<clipPath id="clip0_3825_7806">
<rect width="21.7924" height="21.7924" fill="white" transform="translate(0.145966 0.969238)"/>
</clipPath>
</defs>
</svg>
