<svg width="33" height="33" viewBox="0 0 33 33" fill="none" xmlns="http://www.w3.org/2000/svg">
<rect x="0.383789" y="0.513184" width="31.9737" height="31.9737" rx="15.9868" fill="#B6FFBC" fill-opacity="0.2"/>
<path d="M16.3714 23.3011C14.6334 23.3011 13.119 22.7248 11.8283 21.5721C10.5371 20.4199 9.79702 18.9811 9.6081 17.2557H11.1572C11.3336 18.5655 11.9159 19.6486 12.9044 20.5051C13.8933 21.3615 15.049 21.7897 16.3714 21.7897C17.845 21.7897 19.0949 21.2764 20.1211 20.2497C21.1478 19.2234 21.6612 17.9735 21.6612 16.5C21.6612 15.0264 21.1478 13.7762 20.1211 12.7495C19.0949 11.7233 17.845 11.2102 16.3714 11.2102C15.5024 11.2102 14.69 11.4117 13.9344 11.8148C13.1787 12.2178 12.5427 12.772 12.0263 13.4773H14.1044V14.9886H9.57031V10.4545H11.0817V12.2304C11.724 11.4243 12.5081 10.8009 13.4341 10.3601C14.3596 9.91926 15.3387 9.69885 16.3714 9.69885C17.316 9.69885 18.2009 9.8782 19.0261 10.2369C19.8508 10.5961 20.5687 11.081 21.1798 11.6916C21.7904 12.3027 22.2753 13.0206 22.6345 13.8453C22.9932 14.6705 23.1726 15.5554 23.1726 16.5C23.1726 17.4446 22.9932 18.3292 22.6345 19.1539C22.2753 19.9791 21.7904 20.697 21.1798 21.3076C20.5687 21.9187 19.8508 22.4038 19.0261 22.763C18.2009 23.1217 17.316 23.3011 16.3714 23.3011ZM18.4873 19.6738L15.6158 16.8022V12.7216H17.1271V16.1977L19.5453 18.6159L18.4873 19.6738Z" fill="#5FD068"/>
</svg>
