<svg width="23" height="23" viewBox="0 0 23 23" fill="none" xmlns="http://www.w3.org/2000/svg">
<path d="M15.4845 3.90009C11.4354 1.72797 6.49083 2.91485 3.81921 6.48463L3.81921 4.19337C3.81921 4.07184 3.77093 3.95528 3.685 3.86934C3.59906 3.7834 3.4825 3.73512 3.36096 3.73512C3.23943 3.73512 3.12287 3.7834 3.03693 3.86934C2.95099 3.95528 2.90271 4.07184 2.90271 4.19337L2.90271 7.85939C2.90271 7.98093 2.95099 8.09748 3.03693 8.18342C3.12287 8.26936 3.23943 8.31764 3.36096 8.31764L7.02698 8.31764C7.14852 8.31764 7.26507 8.26936 7.35101 8.18342C7.43695 8.09748 7.48523 7.98093 7.48523 7.85939C7.48523 7.73785 7.43695 7.6213 7.35101 7.53536C7.26507 7.44942 7.14852 7.40114 7.02698 7.40114L4.29855 7.40114C5.04853 6.27678 6.06366 5.35425 7.25442 4.71491C8.44518 4.07558 9.77497 3.73909 11.1265 3.73512C13.3142 3.73184 15.4135 4.59773 16.9627 6.14231C18.512 7.68689 19.3841 9.78364 19.3874 11.9713C19.3907 14.1589 18.5248 16.2583 16.9802 17.8075C15.4356 19.3567 13.3389 20.2289 11.1513 20.2322C11.0297 20.2322 10.9132 20.2805 10.8272 20.3664C10.7413 20.4524 10.693 20.5689 10.693 20.6905C10.693 20.812 10.7413 20.9285 10.8272 21.0145C10.9132 21.1004 11.0297 21.1487 11.1513 21.1487C12.8081 21.1479 14.4338 20.6983 15.8555 19.8475C17.2772 18.9967 18.4419 17.7766 19.2257 16.3169C21.6214 11.8553 19.946 6.29583 15.4845 3.90101V3.90009ZM11.1513 8.31764C11.0297 8.31764 10.9132 8.36592 10.8272 8.45186C10.7413 8.5378 10.693 8.65436 10.693 8.77589V11.9837C10.693 12.1052 10.7413 12.2218 10.8272 12.3077C10.9132 12.3936 11.0297 12.4419 11.1513 12.4419H13.4425C13.564 12.4419 13.6806 12.3936 13.7665 12.3077C13.8525 12.2218 13.9008 12.1052 13.9008 11.9837C13.9008 11.8621 13.8525 11.7456 13.7665 11.6596C13.6806 11.5737 13.564 11.5254 13.4425 11.5254H11.6095L11.6095 8.77589C11.6095 8.65436 11.5612 8.5378 11.4753 8.45186C11.3893 8.36592 11.2728 8.31764 11.1513 8.31764Z" fill="black"/>
</svg>
