<svg width="20" height="20" viewBox="0 0 20 20" fill="none" xmlns="http://www.w3.org/2000/svg">
<path d="M18.3131 7.05425L11.7112 1.44827C10.7681 0.538986 9.2326 0.538986 8.32846 1.41069L1.64866 7.09183C1.00173 7.71555 0.643188 8.54968 0.643188 9.43642L0.643188 16.9436C0.643188 18.1911 1.69543 19.2056 2.9893 19.2056L17.0192 19.2056C18.3053 19.2056 19.3575 18.1911 19.3575 16.9436L19.3575 9.43642C19.3575 8.54968 18.999 7.71555 18.3131 7.05425ZM17.7986 16.9436C17.7986 17.3645 17.4479 17.7026 17.0192 17.7026L12.0776 17.7026L12.0776 12.8631C12.0776 12.4273 11.719 12.0816 11.2669 12.0816L8.73376 12.0816C8.28948 12.0816 7.92315 12.4273 7.92315 12.8631L7.92315 17.7026L2.9893 17.7026C2.55281 17.7026 2.20207 17.3645 2.20207 16.9436L2.20207 9.43642C2.20207 8.96299 2.40472 8.48956 2.7165 8.18146L9.39629 2.50784C9.55997 2.35003 9.77042 2.26737 9.98866 2.26737C10.2225 2.26737 10.4563 2.35755 10.6434 2.5379L17.2452 8.1514C17.6038 8.49708 17.7986 8.95548 17.7986 9.43642L17.7986 16.9436Z" fill="#5FD068"/>
</svg>
