<svg width="31" height="31" viewBox="0 0 31 31" fill="none" xmlns="http://www.w3.org/2000/svg">
<rect x="0.362305" y="0.605835" width="30.0221" height="29.7884" rx="14.8942" fill="#B6FFBC" fill-opacity="0.2"/>
<path d="M22.5628 12.9667L16.8533 8.11845C16.0376 7.33207 14.7097 7.33207 13.9277 8.08595L8.15082 12.9992C7.59133 13.5386 7.28125 14.26 7.28125 15.0269L7.28125 21.5194C7.28125 22.5982 8.19126 23.4756 9.31025 23.4756L21.4438 23.4756C22.556 23.4756 23.466 22.5982 23.466 21.5194L23.466 15.0269C23.466 14.26 23.156 13.5386 22.5628 12.9667ZM22.1179 21.5194C22.1179 21.8833 21.8145 22.1758 21.4438 22.1758L17.1701 22.1758L17.1701 17.9904C17.1701 17.6135 16.86 17.3145 16.469 17.3145L14.2783 17.3145C13.894 17.3145 13.5772 17.6135 13.5772 17.9904L13.5772 22.1758L9.31025 22.1758C8.93276 22.1758 8.62942 21.8833 8.62942 21.5194L8.62942 15.0269C8.62942 14.6174 8.80468 14.208 9.07432 13.9415L14.8512 9.0348C14.9928 8.89832 15.1748 8.82684 15.3635 8.82684C15.5658 8.82684 15.768 8.90482 15.9298 9.0608L21.6393 13.9155C21.9493 14.2145 22.1179 14.6109 22.1179 15.0269L22.1179 21.5194Z" fill="#5FD068"/>
</svg>
