<svg width="33" height="33" viewBox="0 0 33 33" fill="none" xmlns="http://www.w3.org/2000/svg">
<rect x="0.357422" y="0.513184" width="31.9737" height="31.9737" rx="15.9868" fill="#B6FFBC" fill-opacity="0.2"/>
<path d="M14.9432 9.88616C15.0561 9.60709 15.2498 9.36811 15.4994 9.19983C15.749 9.03155 16.0432 8.94165 16.3442 8.94165C16.6452 8.94165 16.9394 9.03155 17.189 9.19983C17.4387 9.36811 17.6323 9.60709 17.7452 9.88616C18.8627 10.1935 19.8484 10.8591 20.5509 11.7809C21.2534 12.7027 21.6339 13.8296 21.634 14.9885V18.5379L23.0184 20.6145C23.0943 20.7284 23.1379 20.8606 23.1445 20.9973C23.1512 21.1339 23.1206 21.2698 23.0561 21.3905C22.9915 21.5111 22.8954 21.6119 22.7781 21.6822C22.6607 21.7525 22.5265 21.7896 22.3896 21.7896H18.9626C18.8716 22.4192 18.5569 22.9949 18.076 23.4113C17.5951 23.8277 16.9803 24.0568 16.3442 24.0568C15.7081 24.0568 15.0933 23.8277 14.6124 23.4113C14.1315 22.9949 13.8168 22.4192 13.7258 21.7896H10.2988C10.162 21.7896 10.0277 21.7525 9.91034 21.6822C9.79297 21.6119 9.69689 21.5111 9.63235 21.3905C9.5678 21.2698 9.53722 21.1339 9.54386 20.9973C9.5505 20.8606 9.59411 20.7284 9.67004 20.6145L11.0544 18.5379V14.9885C11.0544 12.5522 12.7018 10.4998 14.9432 9.88616ZM15.2757 21.7896C15.3537 22.0108 15.4984 22.2023 15.6899 22.3377C15.8813 22.4732 16.1101 22.5459 16.3446 22.5459C16.5791 22.5459 16.8078 22.4732 16.9993 22.3377C17.1907 22.2023 17.3354 22.0108 17.4135 21.7896H15.2749H15.2757ZM16.3442 11.2101C15.3421 11.2101 14.3811 11.6082 13.6725 12.3168C12.9639 13.0254 12.5658 13.9864 12.5658 14.9885V18.7669C12.5658 18.9162 12.5217 19.0621 12.4388 19.1863L11.7111 20.2783H20.9765L20.2488 19.1863C20.1663 19.062 20.1223 18.9161 20.1226 18.7669V14.9885C20.1226 13.9864 19.7245 13.0254 19.0159 12.3168C18.3073 11.6082 17.3463 11.2101 16.3442 11.2101Z" fill="#5FD068"/>
</svg>
