<svg width="32" height="31" viewBox="0 0 32 31" fill="none" xmlns="http://www.w3.org/2000/svg">
<rect x="0.925781" y="0.268799" width="30.4623" height="30.4623" rx="15.2311" fill="#B6FFBC" fill-opacity="0.2"/>
<path d="M22.7543 10.4605C22.6504 10.3566 22.5465 10.3047 22.3906 10.3047H20.3125V8.74609C20.3125 8.59023 20.2605 8.48633 20.1566 8.38242C20.0527 8.27852 19.9488 8.22656 19.7929 8.22656H12.5195C12.3637 8.22656 12.2598 8.27852 12.1559 8.38242C12.0519 8.48633 12 8.59023 12 8.74609V10.3047H9.92187C9.76601 10.3047 9.66211 10.3566 9.5582 10.4605C9.4543 10.5644 9.40234 10.7203 9.40234 10.8242C9.4543 12.5906 9.81797 13.8375 10.4414 14.4609C10.9999 15.0194 11.7006 15.3644 12.5138 15.4673C12.691 15.7992 12.9162 16.1046 13.1949 16.3832C13.8583 17.0466 14.6723 17.4461 15.6367 17.5505V19.6562H14.0781C13.9223 19.6562 13.8183 19.7082 13.7144 19.8121C13.6105 19.916 13.5586 20.0199 13.5586 20.1758C13.5586 20.3316 13.6105 20.4355 13.7144 20.5394C13.8183 20.6433 13.9223 20.6953 14.0781 20.6953H18.2344C18.3902 20.6953 18.4941 20.6433 18.598 20.5394C18.7019 20.4355 18.7539 20.3316 18.7539 20.1758C18.7539 20.0199 18.7019 19.916 18.598 19.8121C18.4941 19.7082 18.3902 19.6562 18.2344 19.6562H16.6758V17.5336C17.6401 17.4084 18.4542 17.0464 19.1176 16.3832C19.3968 16.1039 19.6291 15.7977 19.8126 15.4651C20.607 15.3594 21.2741 15.0154 21.8711 14.4609C22.4945 13.8375 22.8582 12.6426 22.9101 10.8242C22.9101 10.7203 22.8582 10.5644 22.7543 10.4605ZM12 14.3051C11.6883 14.2012 11.4285 13.9933 11.1687 13.7336C10.8051 13.3699 10.5973 12.5906 10.4934 11.3437H12V14.3051ZM18.3383 15.6039C17.7148 16.1754 17.0394 16.539 16.1562 16.539C15.273 16.539 14.5457 16.2273 13.9742 15.6039C13.4027 14.9805 13.0391 14.3051 13.0391 13.4219V9.26562H19.2734V13.4219C19.2734 14.3051 18.9617 15.0324 18.3383 15.6039ZM21.1437 13.7336C20.884 13.9933 20.6242 14.1492 20.3125 14.3051V11.3437H21.8191C21.7152 12.5906 21.5074 13.3699 21.1437 13.7336ZM20.3125 21.7343H12C11.8441 21.7343 11.7402 21.7863 11.6363 21.8902C11.5324 21.9941 11.4805 22.098 11.4805 22.2539C11.4805 22.4097 11.5324 22.5136 11.6363 22.6175C11.7402 22.7214 11.8441 22.7734 12 22.7734H20.3125C20.4683 22.7734 20.5722 22.7214 20.6761 22.6175C20.7801 22.5136 20.832 22.4097 20.832 22.2539C20.832 22.098 20.7801 21.9941 20.6761 21.8902C20.5722 21.7863 20.4683 21.7343 20.3125 21.7343Z" fill="#5FD068"/>
</svg>
